<?xml version="1.0" standalone="no"?>
<!DOCTYPE svg PUBLIC "-//W3C//DTD SVG 20010904//EN"
 "http://www.w3.org/TR/2001/REC-SVG-20010904/DTD/svg10.dtd">
<svg version="1.0" xmlns="http://www.w3.org/2000/svg"
 width="1280.000000pt" height="700.000000pt" viewBox="0 0 1280.000000 700.000000"
 preserveAspectRatio="xMidYMid meet">
<metadata>
Created by potrace 1.15, written by Peter Selinger 2001-2017
</metadata>
<g transform="translate(0.000000,700.000000) scale(0.100000,-0.100000)"
fill="#000000" stroke="none">
<path d="M6155 6947 c-161 -70 -241 -114 -430 -239 l-161 -104 -37 -71 c-41
-79 -66 -167 -97 -351 l-21 -123 33 -42 c18 -23 86 -104 152 -181 101 -118
123 -150 152 -222 18 -45 36 -102 40 -126 5 -35 18 -55 69 -108 34 -36 84 -94
110 -130 63 -85 104 -128 138 -146 l27 -15 0 -118 0 -118 -54 -12 c-50 -11
-62 -20 -143 -105 -102 -106 -142 -176 -201 -346 -51 -149 -141 -372 -156
-386 -6 -6 -49 -26 -96 -44 -47 -19 -161 -67 -255 -108 -260 -114 -387 -159
-889 -317 -98 -31 -191 -65 -205 -75 -14 -10 -66 -31 -115 -46 -145 -43 -236
-21 -236 55 0 28 -6 41 -92 201 -26 47 -60 130 -77 186 -17 55 -39 108 -49
117 -26 24 -66 21 -86 -5 -16 -22 -17 -7 -12 232 3 140 10 350 17 466 7 116 9
222 6 236 -5 19 -19 31 -50 43 -39 14 -45 21 -56 62 -21 82 -98 226 -152 286
-92 103 -401 341 -549 424 -157 87 -533 163 -803 163 -152 0 -246 -11 -512
-57 l-210 -36 -105 -65 c-209 -129 -413 -283 -481 -363 -68 -81 -161 -205
-214 -288 -45 -70 -146 -266 -175 -341 -18 -46 -138 -180 -162 -180 -22 0 -21
11 -7 -234 11 -187 12 -191 41 -234 44 -64 76 -140 102 -243 22 -85 22 -95 8
-117 -12 -19 -14 -44 -9 -140 7 -129 26 -221 58 -285 23 -46 254 -469 275
-504 8 -12 59 -45 115 -74 66 -34 130 -77 185 -125 142 -124 241 -183 359
-214 106 -28 155 -51 170 -80 12 -24 24 -29 82 -40 174 -31 245 -52 251 -73 5
-20 10 -20 190 -13 l186 6 89 60 c94 62 149 86 339 144 69 21 129 46 147 61
38 32 166 103 253 139 75 32 68 32 243 -13 66 -18 146 -34 177 -36 44 -3 68
-11 103 -35 50 -35 110 -90 142 -133 20 -26 25 -27 74 -21 37 5 61 15 78 32
l24 24 86 -16 c47 -9 152 -37 234 -62 180 -55 282 -68 452 -60 136 6 360 29
474 47 36 7 110 14 163 16 89 4 97 7 100 26 2 17 24 27 123 57 155 48 182 59
468 196 473 227 703 323 842 350 l84 17 116 -98 c75 -63 158 -120 233 -162 65
-36 121 -69 126 -74 6 -5 69 -9 141 -9 l132 0 85 -64 c194 -146 293 -203 399
-230 87 -21 106 -20 186 9 65 24 69 24 90 7 143 -114 206 -161 308 -232 66
-45 132 -93 146 -106 14 -14 86 -47 160 -74 74 -28 188 -73 254 -101 l120 -52
33 -69 c29 -59 44 -76 102 -119 38 -28 84 -68 102 -90 30 -36 44 -43 162 -79
71 -22 132 -43 136 -47 4 -4 12 -37 18 -72 6 -36 15 -68 19 -72 4 -4 127 -19
273 -34 439 -43 442 -44 610 -121 99 -44 169 -84 213 -119 76 -61 165 -99 336
-141 92 -24 116 -33 124 -51 18 -39 122 -103 225 -137 53 -18 122 -47 152 -63
30 -17 102 -47 160 -68 l106 -38 88 -146 88 -146 115 -83 115 -84 167 -5 c135
-5 168 -3 177 8 13 15 64 244 64 284 0 13 -13 39 -29 57 -33 38 -53 75 -81
151 -19 51 -23 55 -65 66 -27 7 -67 30 -102 59 -32 27 -78 61 -102 76 -24 15
-53 39 -65 52 -11 14 -66 45 -120 70 -55 25 -117 61 -138 80 -55 49 -114 85
-332 199 l-190 100 -46 77 c-25 42 -87 127 -137 190 l-91 114 -151 44 c-146
43 -151 45 -156 75 -12 57 -16 63 -44 68 -22 5 -44 27 -89 89 -80 111 -195
218 -233 218 -10 0 -28 43 -58 138 -48 155 -103 271 -189 399 -59 88 -122 194
-122 206 0 9 99 37 132 37 16 0 77 -20 135 -45 58 -25 109 -45 113 -45 5 0 29
28 53 63 25 34 75 91 111 127 l66 64 27 -20 c32 -24 40 -52 42 -141 1 -47 5
-63 15 -63 7 0 21 -11 29 -23 9 -13 28 -29 44 -35 27 -11 486 -69 624 -79 63
-5 244 22 327 48 39 13 40 24 7 120 -41 121 -66 148 -216 228 -81 43 -104 51
-150 51 -132 1 -212 76 -287 270 -17 45 -42 200 -42 264 0 8 -16 33 -35 56
-39 46 -109 163 -118 195 -44 158 -103 309 -139 353 -7 7 -30 23 -52 35 -37
19 -63 22 -296 29 -140 4 -279 11 -308 17 -148 28 -355 90 -592 178 -202 75
-335 119 -493 164 -62 17 -114 33 -116 35 -2 2 57 68 131 146 293 313 408 443
546 621 64 82 76 130 67 272 -10 155 -13 161 -119 263 -109 104 -206 167 -341
222 -176 72 -346 115 -635 160 -102 16 -215 38 -250 49 -55 18 -92 21 -245 21
-259 0 -677 -27 -851 -55 -48 -8 -108 -26 -145 -44 -52 -25 -76 -31 -130 -31
l-67 0 -86 143 c-101 169 -190 292 -249 342 -78 67 -207 116 -472 179 -11 3
-73 -18 -140 -47z"/>
</g>
</svg>
